<?xml version="1.0" encoding="UTF-8"?>
<svg id="Capa_1" data-name="Capa 1" xmlns="http://www.w3.org/2000/svg" viewBox="0 0 150.08 79.11">
  <defs>
    <style>
      .cls-1 {
        fill: #ebfe49;
      }

      .cls-1, .cls-2, .cls-3, .cls-4, .cls-5, .cls-6, .cls-7, .cls-8, .cls-9, .cls-10, .cls-11, .cls-12, .cls-13, .cls-14 {
        fill-rule: evenodd;
      }

      .cls-2 {
        fill: #fcb105;
      }

      .cls-3 {
        fill: #2e58cb;
      }

      .cls-4 {
        fill: #2956cc;
      }

      .cls-5 {
        fill: #3059cd;
      }

      .cls-6 {
        fill: #fff580;
      }

      .cls-7 {
        fill: #fff57c;
      }

      .cls-8 {
        fill: #ffc700;
      }

      .cls-9 {
        fill: #c28b03;
      }

      .cls-10 {
        fill: #2755cb;
      }

      .cls-11 {
        fill: #fee71a;
      }

      .cls-12 {
        fill: #e5f245;
      }

      .cls-13 {
        fill: #f4eb4d;
      }

      .cls-14 {
        fill: #dff252;
      }
    </style>
  </defs>
  <path class="cls-6" d="M41.08,1.11c-2.1-.3-4.1,0-6,1-5.4,5.9-10.1,12.2-14,19V.11c6.9-.3,13.5,0,20,1Z"/>
  <path class="cls-11" d="M41.08,27.11c-6.2,7.8-12.9,15.1-20,22-5,.2-10,0-15-.5C16.48,34.11,27.78,20.21,40.08,7.11c1,6.6,1.3,13.3,1,20Z"/>
  <path class="cls-4" d="M77.08,13.11c.1-.5,.4-.9,1-1,11.2,6.4,23.2,8.9,36,7.5,7.6-3.9,15.6-5.6,24-5,3.5,1.3,6.5,3.3,9,6-4.1-2.1-8.6-3.3-13.5-3.5-1.8,.2-3.7,.3-5.5,.5-5.2,1.7-10.2,3.7-15,6-13.4,1.3-25.4-2.2-36-10.5Z"/>
  <path class="cls-5" d="M133.08,22.11c1.4-.2,2.7,0,4,.5,1.2,2.8,.2,3.8-3,3-.8-1-1.2-2.2-1-3.5Z"/>
  <path class="cls-7" d="M12.08,27.11c.1,.6,.4,1.1,1,1.5-4.1,3.6-7.6,7.8-10.5,12.5-.8,1.1-1.6,1.1-2.5,0v-14H12.08Z"/>
  <path class="cls-8" d="M41.08,27.11h10c.1,.6,.4,1.1,1,1.5-8.9,10.3-17.9,20.5-27,30.5-1.4,2.4-2.8,4.7-4,7v-17c7.1-6.9,13.8-14.2,20-22Z"/>
  <path class="cls-2" d="M51.08,27.11c3.7-.2,7.3,0,11,.5,.9,1.7,1.2,3.5,1,5.5v11h4v1c-2.4-.2-4.7,0-7,.5-1.3,.8-2,2-2,3.5h-17v25H22.08c-1-2.4-1.3-5.1-1-8,1.2-2.3,2.6-4.6,4-7,9.1-10,18.1-20.2,27-30.5-.6-.4-.9-.9-1-1.5Z"/>
  <path class="cls-13" d="M41.08,1.11c1,1.8,1.3,3.8,1,6h5V27.11h-6c.3-6.7,0-13.4-1-20C27.78,20.21,16.48,34.11,6.08,48.61c5,.5,10,.7,15,.5v6H5.08v-5c-1.6,.2-3.1-.1-4.5-1C.08,46.51-.12,43.81,.08,41.11c.9,1.1,1.7,1.1,2.5,0,2.9-4.7,6.4-8.9,10.5-12.5-.6-.4-.9-.9-1-1.5h9v-6c3.9-6.8,8.6-13.1,14-19,1.9-1,3.9-1.3,6-1Z"/>
  <path class="cls-1" d="M63.08,33.11h4v11h-4v-11Z"/>
  <path class="cls-3" d="M65.08,50.11c-1.1,1.1-1.3,2.4-.5,4,.7,.8,1.5,1.1,2.5,1,4.1,3.6,8.8,6.4,14,8.5-7.7-.3-14.4-3.2-20-8.5-.7-1.8-1.7-3.5-3-5v-1c0-1.5,.7-2.7,2-3.5,2.3-.5,4.6-.7,7-.5,7,1.5,14,2.8,21,4,.2-1.4,0-2.7-.5-4-11.7-12-23.7-23.7-36-35-.7-.7-.7-1.3,0-2,8.2,6.8,16.3,13.7,24.5,20.5,6.5,6.2,12.7,12.7,18.5,19.5,.7,1.6,.6,3.1-.5,4.5-2,1-4.2,1.5-6.5,1.5-6.7-1.5-13.4-3.2-20-5-1.1,0-1.9,.4-2.5,1Z"/>
  <path class="cls-10" d="M140.08,31.11c3.4-.2,6.7,0,10,.5-7.9,1.5-14.9,4.8-21,10-8.2,9.8-16.2,19.8-24,30-7.3,5.1-15,5.7-23,2,7,1.2,13.4-.4,19-5,8.3-9.7,16.7-19.3,25-29,4.6-3.1,9.2-5.9,14-8.5Z"/>
  <path class="cls-14" d="M65.08,50.11c1.8,1.1,2.4,2.7,2,5-1,.1-1.8-.2-2.5-1-.8-1.6-.6-2.9,.5-4Z"/>
  <path class="cls-12" d="M58.08,50.11c1.3,1.5,2.3,3.2,3,5h-14v24H27.08v-4h15v-25h16Z"/>
  <path class="cls-9" d="M58.08,49.11v1h-16v25h-15c-1.9,.3-3.6,0-5-1h19v-25h17Z"/>
</svg>