<?xml version="1.0" encoding="utf-8"?>
<!-- Generator: Adobe Illustrator 27.0.0, SVG Export Plug-In . SVG Version: 6.00 Build 0)  -->
<svg version="1.1" id="Capa_1" xmlns="http://www.w3.org/2000/svg" xmlns:xlink="http://www.w3.org/1999/xlink" x="0px" y="0px"
	 viewBox="0 0 373 135" style="enable-background:new 0 0 373 135;" xml:space="preserve">
<style type="text/css">
	.st0{fill-rule:evenodd;clip-rule:evenodd;fill:#FFF580;}
	.st1{fill-rule:evenodd;clip-rule:evenodd;fill:#8DA3E3;}
	.st2{fill-rule:evenodd;clip-rule:evenodd;fill:#2050CA;}
	.st3{fill-rule:evenodd;clip-rule:evenodd;fill:#2653CB;}
	.st4{fill-rule:evenodd;clip-rule:evenodd;fill:#2554CB;}
	.st5{fill-rule:evenodd;clip-rule:evenodd;fill:#4363CF;}
	.st6{fill-rule:evenodd;clip-rule:evenodd;fill:#2752CB;}
	.st7{fill-rule:evenodd;clip-rule:evenodd;fill:#FEE71A;}
	.st8{fill-rule:evenodd;clip-rule:evenodd;fill:#2C56CC;}
	.st9{fill-rule:evenodd;clip-rule:evenodd;fill:#2F56CC;}
	.st10{fill-rule:evenodd;clip-rule:evenodd;fill:#2D56CC;}
	.st11{fill-rule:evenodd;clip-rule:evenodd;fill:#3157CC;}
	.st12{fill-rule:evenodd;clip-rule:evenodd;fill:#D3DBF2;}
	.st13{fill-rule:evenodd;clip-rule:evenodd;fill:#3B5DCE;}
	.st14{fill-rule:evenodd;clip-rule:evenodd;fill:#4262CF;}
	.st15{fill-rule:evenodd;clip-rule:evenodd;fill:#2956CC;}
	.st16{fill-rule:evenodd;clip-rule:evenodd;fill:#2453CB;}
	.st17{fill-rule:evenodd;clip-rule:evenodd;fill:#EAEEF9;}
	.st18{fill-rule:evenodd;clip-rule:evenodd;fill:#3A5ECE;}
	.st19{fill-rule:evenodd;clip-rule:evenodd;fill:#E1E6F6;}
	.st20{fill-rule:evenodd;clip-rule:evenodd;fill:#3059CD;}
	.st21{fill-rule:evenodd;clip-rule:evenodd;fill:#FFF57C;}
	.st22{fill-rule:evenodd;clip-rule:evenodd;fill:#FFC700;}
	.st23{fill-rule:evenodd;clip-rule:evenodd;fill:#FCB105;}
	.st24{fill-rule:evenodd;clip-rule:evenodd;fill:#F4EB4D;}
	.st25{fill-rule:evenodd;clip-rule:evenodd;fill:#EBFE49;}
	.st26{fill-rule:evenodd;clip-rule:evenodd;fill:#2F58CC;}
	.st27{fill-rule:evenodd;clip-rule:evenodd;fill:#2954CB;}
	.st28{fill-rule:evenodd;clip-rule:evenodd;fill:#EEF1FA;}
	.st29{fill-rule:evenodd;clip-rule:evenodd;fill:#2250CA;}
	.st30{fill-rule:evenodd;clip-rule:evenodd;fill:#EFF1FA;}
	.st31{fill-rule:evenodd;clip-rule:evenodd;fill:#3053CC;}
	.st32{fill-rule:evenodd;clip-rule:evenodd;fill:#2D54CC;}
	.st33{fill-rule:evenodd;clip-rule:evenodd;fill:#93A4E3;}
	.st34{fill-rule:evenodd;clip-rule:evenodd;fill:#3256CD;}
	.st35{fill-rule:evenodd;clip-rule:evenodd;fill:#2F57CC;}
	.st36{fill-rule:evenodd;clip-rule:evenodd;fill:#2654CB;}
	.st37{fill-rule:evenodd;clip-rule:evenodd;fill:#2853CC;}
	.st38{fill-rule:evenodd;clip-rule:evenodd;fill:#2E58CB;}
	.st39{fill-rule:evenodd;clip-rule:evenodd;fill:#2755CB;}
	.st40{fill-rule:evenodd;clip-rule:evenodd;fill:#254ECB;}
	.st41{fill-rule:evenodd;clip-rule:evenodd;fill:#DFF252;}
	.st42{fill-rule:evenodd;clip-rule:evenodd;fill:#E5F245;}
	.st43{fill-rule:evenodd;clip-rule:evenodd;fill:#1C4DCC;}
	.st44{fill-rule:evenodd;clip-rule:evenodd;fill:#385ACF;}
	.st45{fill-rule:evenodd;clip-rule:evenodd;fill:#4B67D2;}
	.st46{fill-rule:evenodd;clip-rule:evenodd;fill:#EFF2FA;}
	.st47{fill-rule:evenodd;clip-rule:evenodd;fill:#224ECA;}
	.st48{fill-rule:evenodd;clip-rule:evenodd;fill:#154BC9;}
	.st49{fill-rule:evenodd;clip-rule:evenodd;fill:#E3E9F7;}
	.st50{fill-rule:evenodd;clip-rule:evenodd;fill:#2150CA;}
	.st51{fill-rule:evenodd;clip-rule:evenodd;fill:#8892E0;}
	.st52{fill-rule:evenodd;clip-rule:evenodd;fill:#3D5DCE;}
	.st53{fill-rule:evenodd;clip-rule:evenodd;fill:#345ACE;}
	.st54{fill-rule:evenodd;clip-rule:evenodd;fill:#F0F3FB;}
	.st55{fill-rule:evenodd;clip-rule:evenodd;fill:#BDC8ED;}
	.st56{fill-rule:evenodd;clip-rule:evenodd;fill:#2751CB;}
	.st57{fill-rule:evenodd;clip-rule:evenodd;fill:#BFCAED;}
	.st58{fill-rule:evenodd;clip-rule:evenodd;fill:#E1E6F7;}
	.st59{fill-rule:evenodd;clip-rule:evenodd;fill:#365ACD;}
	.st60{fill-rule:evenodd;clip-rule:evenodd;fill:#EDF0FA;}
	.st61{fill-rule:evenodd;clip-rule:evenodd;fill:#1048C8;}
	.st62{fill-rule:evenodd;clip-rule:evenodd;fill:#C28B03;}
</style>
<g>
	<path class="st0" d="M77.5,30.5c-2.1-0.3-4.1,0-6,1c-5.4,5.9-10.1,12.2-14,19c0-7,0-14,0-21C64.4,29.2,71,29.5,77.5,30.5z"/>
</g>
<g>
	<path class="st1" d="M345.5,43.5c-3.2-0.3-6.2,0-9,1c-0.3,0-0.7,0-1,0c-1.3-1.3-2.7-1.3-4,0c-0.5-0.1-0.9-0.4-1-1
		C335.7,42.2,340.7,42.2,345.5,43.5z"/>
</g>
<g>
	<path class="st2" d="M248.5,43.5c3.3,0,6.7,0,10,0c0.2,3.6-0.8,3.9-3,1c-1.5,3.4-1.2,6.6,1,9.5c-5.7,1.8-7.4,0.2-5-5
		c0.2-4.2-1-5-3.5-2.5C247.5,45.4,247.7,44.4,248.5,43.5z"/>
</g>
<g>
	<path class="st3" d="M336.5,44.5c2.8-1,5.8-1.3,9-1c0.8,0.7,1.4,1.5,2,2.5c-0.3,0.2-0.7,0.3-1,0.5c-1.7-1.6-3.7-2.3-6-2
		c0.2,3.2,1,3.6,2.5,1c0.2,0.8,0.3,1.7,0.5,2.5c-1.2,1-2.2,2.5-3,4.5c2.4,0.2,4.6-0.5,6.5-2c0.5,1,0.3,2-0.5,3
		c-3.3,1.3-6.7,1.3-10,0C337.8,50.4,337.8,47.4,336.5,44.5z"/>
</g>
<g>
	<path class="st4" d="M358.5,53.5c-3.2,1.1-6.6,1.2-10,0.5c1.3-3.3,1.3-6.7,0-10c1.7-0.7,3.3-0.7,5,0c-1,3.1-1.3,6.2-1,9.5
		c2.4,0.1,4.2-0.9,5.5-3C358.5,51.4,358.6,52.4,358.5,53.5z"/>
</g>
<g>
	<path class="st4" d="M191.5,44.5c1.4-1.1,3.1-1.3,5-0.5c-0.8,1-1.2,2.2-1,3.5c1.3,0,2.7,0,4,0c0.2-1.3-0.2-2.5-1-3.5
		c5.1-1.6,6.4-0.1,4,4.5c-0.2,2.2,0.5,4,2,5.5c-2,0.7-4,0.7-6,0c0.9-1.4,1.2-2.9,1-4.5c-1.3,0-2.7,0-4,0c-0.2,1.6,0.1,3.1,1,4.5
		c-2,0.7-4,0.7-6,0C192.7,51,193,47.8,191.5,44.5z"/>
</g>
<g>
	<path class="st5" d="M240.5,44.5c0.5-1.2,1.5-1.9,3-2c1,0.3,2,0.7,3,1c-1.3,3.5-1.3,7,0,10.5c-2,0.7-4,0.7-6,0
		c1.5-1.5,2.2-3.3,2-5.5C242.4,46.7,241.7,45.3,240.5,44.5z"/>
</g>
<g>
	<path class="st6" d="M331.5,44.5c1.3-1.3,2.7-1.3,4,0c-1.7,2.5-2.6,5.5-2.5,9c-2.9,1.5-5.6,1.2-8-1c-0.2-2.9-0.7-5.8-1.5-8.5
		c2-0.7,4-0.7,6,0c-2,2.5-2.5,5.3-1.5,8.5c1.3,1.3,2.7,1.3,4,0C332.8,49.6,332.6,47,331.5,44.5z"/>
</g>
<g>
	<path class="st7" d="M77.5,56.5c-6.2,7.8-12.9,15.1-20,22c-5,0.2-10,0-15-0.5c10.4-14.5,21.7-28.4,34-41.5
		C77.5,43.1,77.8,49.8,77.5,56.5z"/>
</g>
<g>
	<path class="st8" d="M262.5,43.5c1.5-0.3,2.8,0.1,4,1c0.8,2.4,1.8,4.7,3,7c0.8,0.9,1.8,1.2,3,1c0.3-2.9-0.1-5.8-1-8.5
		c1.7-0.7,3.3-0.7,5,0c-0.9,2.7-1.3,5.6-1,8.5c2.2,0.3,4.1-0.3,5.5-2c0.5,1,0.3,2-0.5,3c-5,1.2-10,1.3-15,0.5c0.8-1,1.2-2.2,1-3.5
		c-1.7,0-3.3,0-5,0c-0.2,1.3,0.2,2.5,1,3.5c-1.7,0.7-3.3,0.7-5,0C260.1,50.9,261.8,47.4,262.5,43.5z"/>
</g>
<g>
	<path class="st9" d="M314.5,42.5c2.3,0,4.7,0,7,0c0.6,1.8,0.6,3.5,0,5c-1.5-2.9-3.7-3.6-6.5-2c-0.9,2.8-0.4,5.3,1.5,7.5
		c2.4,0.6,4.2-0.2,5.5-2.5c0,2.8-1.5,4.1-4.5,4c-5.4-0.7-7.2-3.7-5.5-9C313,44.6,313.9,43.6,314.5,42.5z"/>
</g>
<g>
	<path class="st10" d="M219.5,43.5c2.7,0,5.3,0,8,0c0.1,1.1,0,2.1-0.5,3c-1.6-2-3.4-2.3-5.5-1c2.1,1.1,4.3,2.1,6.5,3
		c0.8,2.2,0.3,4-1.5,5.5c-2.3,0.5-4.6,0.7-7,0.5c-0.4-1.6-0.4-2.9,0-4c1.4,1.2,2.9,2.2,4.5,3c1.3-0.1,2.1-0.8,2.5-2
		c-2.9-0.7-5.4-2-7.5-4C218.4,46.1,218.6,44.7,219.5,43.5z"/>
</g>
<g>
	<path class="st11" d="M240.5,44.5c-0.2,4.3-2.6,6-7,5c-0.2,1.9,0.5,3.4,2,4.5c-2.1,0.8-4.1,0.6-6-0.5c1.3-3.2,1.3-6.4,0-9.5
		C233.3,43.2,236.9,43.4,240.5,44.5z"/>
</g>
<g>
	<path class="st12" d="M233.5,44.5c1.8-0.3,3.2,0.4,4,2c-0.8,1.6-2.2,2.3-4,2C233.5,47.2,233.5,45.8,233.5,44.5z"/>
</g>
<g>
	<path class="st13" d="M302.5,42.5c2.4-0.2,4.6,0.5,6.5,2c0.7,0.8,0.5,1.5-0.5,2c-1.8-1.9-3.8-2.3-6-1c2.6,1.3,5.1,2.6,7.5,4
		c0.7,1.9,0.2,3.4-1.5,4.5c-2.6,0.8-5.1,0.6-7.5-0.5c-0.7-1-0.7-2,0-3c1.9,2.1,4.1,2.4,6.5,1c-2.1-1.1-4.3-2.1-6.5-3
		C300.3,46.2,300.8,44.2,302.5,42.5z"/>
</g>
<g>
	<path class="st14" d="M358.5,53.5c1.9-3.4,4.1-6.8,6.5-10c0.8,0.1,1.4,0.5,2,1c1.1,3.4,2.6,6.5,4.5,9.5c-2.1,0.8-4.1,0.6-6-0.5
		c1.7-1.7,1.3-2.7-1-3c-2.3,0.3-2.7,1.3-1,3C361.7,54.8,360,54.8,358.5,53.5z"/>
</g>
<g>
	<path class="st15" d="M113.5,42.5c0.1-0.5,0.4-0.9,1-1c11.2,6.4,23.2,8.9,36,7.5c7.6-3.9,15.6-5.6,24-5c3.5,1.3,6.5,3.3,9,6
		c-4.1-2.1-8.6-3.3-13.5-3.5c-1.8,0.2-3.7,0.3-5.5,0.5c-5.2,1.7-10.2,3.7-15,6C136.1,54.3,124.1,50.8,113.5,42.5z"/>
</g>
<g>
	<path class="st16" d="M208.5,42.5c9.3,0.2,11.3,4,6,11.5c-7.2,1.5-10-1.3-8.5-8.5C207,44.6,207.9,43.6,208.5,42.5z"/>
</g>
<g>
	<path class="st17" d="M209.5,44.5c4.5,0.2,6,2.6,4.5,7c-3.5,2.8-5.4,1.8-5.5-3C208.6,47.1,209,45.7,209.5,44.5z"/>
</g>
<g>
	<path class="st18" d="M295.5,45.5c0.3,1.8,0,3.5-1,5c-2.2-2.4-3.2-1.8-3,2c2.5,0.4,4.7-0.3,6.5-2c0.7,1.3,0.5,2.5-0.5,3.5
		c-3.3,0.7-6.7,0.7-10,0c1.3-3.3,1.3-6.7,0-10c3.3-0.7,6.7-0.7,10,0c1,0.7,1.1,1.6,0.5,2.5C297.3,45.7,296.5,45.4,295.5,45.5z"/>
</g>
<g>
	<path class="st19" d="M295.5,45.5c-1,0.6-2,1.3-3,2c-0.9-0.8-1.2-1.8-1-3C293.1,44.2,294.4,44.6,295.5,45.5z"/>
</g>
<g>
	<path class="st20" d="M169.5,51.5c1.4-0.2,2.7,0,4,0.5c1.2,2.8,0.2,3.8-3,3C169.7,54,169.3,52.8,169.5,51.5z"/>
</g>
<g>
	<path class="st21" d="M48.5,56.5c0.1,0.6,0.4,1.1,1,1.5c-4.1,3.6-7.6,7.8-10.5,12.5c-0.8,1.1-1.6,1.1-2.5,0c0-4.7,0-9.3,0-14
		C40.5,56.5,44.5,56.5,48.5,56.5z"/>
</g>
<g>
	<path class="st22" d="M77.5,56.5c2,0,4,0,6,0c1.3,0,2.7,0,4,0c0.1,0.6,0.4,1.1,1,1.5c-8.9,10.3-17.9,20.5-27,30.5
		c-1.4,2.4-2.8,4.7-4,7c0-3.7,0-7.3,0-11c0-2,0-4,0-6C64.6,71.6,71.3,64.3,77.5,56.5z"/>
</g>
<g>
	<path class="st23" d="M87.5,56.5c3.7-0.2,7.3,0,11,0.5c0.9,1.7,1.2,3.5,1,5.5c0,3.7,0,7.3,0,11c1.3,0,2.7,0,4,0c0,0.3,0,0.7,0,1
		c-2.4-0.2-4.7,0-7,0.5c-1.3,0.8-2,2-2,3.5c-5.7,0-11.3,0-17,0c0,8.3,0,16.7,0,25c-6.3,0-12.7,0-19,0c-1-2.4-1.3-5.1-1-8
		c1.2-2.3,2.6-4.6,4-7c9.1-10,18.1-20.2,27-30.5C87.9,57.6,87.6,57.1,87.5,56.5z"/>
</g>
<g>
	<path class="st24" d="M77.5,30.5c1,1.8,1.3,3.8,1,6c1.7,0,3.3,0,5,0c0,6.7,0,13.3,0,20c-2,0-4,0-6,0c0.3-6.7,0-13.4-1-20
		c-12.3,13.1-23.6,27-34,41.5c5,0.5,10,0.7,15,0.5c0,2,0,4,0,6c-5.3,0-10.7,0-16,0c0-1.7,0-3.3,0-5c-1.6,0.2-3.1-0.1-4.5-1
		c-0.5-2.6-0.7-5.3-0.5-8c0.9,1.1,1.7,1.1,2.5,0c2.9-4.7,6.4-8.9,10.5-12.5c-0.6-0.4-0.9-0.9-1-1.5c3,0,6,0,9,0c0-2,0-4,0-6
		c3.9-6.8,8.6-13.1,14-19C73.4,30.5,75.4,30.2,77.5,30.5z"/>
</g>
<g>
	<path class="st25" d="M99.5,62.5c1.3,0,2.7,0,4,0c0,3.7,0,7.3,0,11c-1.3,0-2.7,0-4,0C99.5,69.8,99.5,66.2,99.5,62.5z"/>
</g>
<g>
	<path class="st6" d="M191.5,64.5c4.2-1.8,8-1.1,11.5,2c1,3.1,0.2,5.6-2.5,7.5c-3,0.7-6,0.7-9,0C192.8,70.7,192.8,67.6,191.5,64.5z"
		/>
</g>
<g>
	<path class="st26" d="M272.5,64.5c3.1-1.1,6.5-1.3,10-0.5c2.7,3.3,2.7,6.7,0,10c-3.3,0.7-6.7,0.7-10,0c2-2.5,2.5-5.3,1.5-8.5
		C273.6,64.9,273.1,64.6,272.5,64.5z"/>
</g>
<g>
	<path class="st27" d="M335.5,63.5c3.6-0.3,7.1,0,10.5,1c0.7,1,0.7,2,0,3c-1-1-2-2-3-3c-0.8,3.3-0.6,6.4,0.5,9.5
		c-1.7,0.7-3.3,0.7-5,0c1.3-3.1,1.3-6.3,0-9.5C336.1,68.8,335.1,68.4,335.5,63.5z"/>
</g>
<g>
	<path class="st28" d="M195.5,64.5c3.2-0.3,4.6,1.2,4,4.5c0.6,3.3-0.8,4.8-4,4.5C195.5,70.5,195.5,67.5,195.5,64.5z"/>
</g>
<g>
	<path class="st29" d="M204.5,64.5c3.4-1.3,6.9-1.3,10.5,0c0.6,3.7-0.2,3.8-2.5,0.5c-1.3-0.7-2.5-0.5-3.5,0.5c0.1,2.1,1.1,2.5,3,1
		c1.2,4.3,0.4,5.3-2.5,3c-0.9,1.2-1.3,2.5-1,4c2.9,0.4,5.3-0.6,7-3c1.1,1.4,0.8,2.5-1,3.5c-3.3,0.7-6.7,0.7-10,0c1.5-1.3,2.1-3,2-5
		C206.7,67,206,65.5,204.5,64.5z"/>
</g>
<g>
	<path class="st30" d="M277.5,64.5c2.8,0.1,4.1,1.6,4,4.5c0.6,3.3-0.8,4.8-4,4.5C277.5,70.5,277.5,67.5,277.5,64.5z"/>
</g>
<g>
	<path class="st31" d="M259.5,64.5c1.8-1.1,3.8-1.3,6-0.5c-2,2.5-2.5,5.3-1.5,8.5c1.3,1.3,2.7,1.3,4,0c0.8-2.9,0.6-5.8-0.5-8.5
		c1.3-0.7,2.7-0.7,4,0c-0.8,3.1-1.3,6.2-1.5,9.5c-7.5,2.8-10.5,0.1-9-8C260.6,64.9,260.1,64.6,259.5,64.5z"/>
</g>
<g>
	<path class="st32" d="M317.5,65.5c-1.1-0.9-2.4-1.3-4-1c0,1,0,2,0,3c1.2-0.2,2.2,0.1,3,1c-0.1,0.6-0.5,0.9-1,1c-1.7,0.7-2.3,2-2,4
		c3-0.3,5.7-1.1,8-2.5c-0.7,1-1.3,2-2,3c-3.3,0.7-6.7,0.7-10,0c1.3-3.3,1.3-6.7,0-10c3.3-0.7,6.7-0.7,10,0
		C321,67.8,320.3,68.3,317.5,65.5z"/>
</g>
<g>
	<path class="st33" d="M317.5,65.5c0.3,2.1,0,4.1-1,6c-0.8-0.5-1.1-1.1-1-2c0.5-0.1,0.9-0.4,1-1c-0.8-0.9-1.8-1.2-3-1c0-1,0-2,0-3
		C315.1,64.2,316.4,64.6,317.5,65.5z"/>
</g>
<g>
	<path class="st34" d="M351.5,63.5c1.2-0.2,2.2,0.1,3,1c1.4,2.5,2.6,5.2,3.5,8c1,0.8,2.2,1.2,3.5,1c0.5-3.5-0.2-6.7-2-9.5
		c2-0.7,4-0.7,6,0c-1,3.1-1.3,6.2-1,9.5c2.4,0.1,4.2-0.9,5.5-3c0.5,1,0.3,2-0.5,3c-5.3,1.2-10.6,1.3-16,0.5c0.8-1,1.2-2.2,1-3.5
		c-1.6-0.2-3.1,0.1-4.5,1c-0.5,1.2,0,2.1,1.5,2.5c-1.7,0.7-3.3,0.7-5,0C348.6,70.7,350.2,67.2,351.5,63.5z"/>
</g>
<g>
	<path class="st35" d="M322.5,64.5c1.4-1.1,3.1-1.3,5-0.5c1,1.9,2.2,3.8,3.5,5.5c0.9-2.2,0.4-4.1-1.5-5.5c1.3-0.7,2.7-0.7,4,0
		c-0.6,3.5-1.3,7-2,10.5c-2.3-1.9-4.1-4.3-5.5-7c-0.8,2.3-0.6,4.4,0.5,6.5c-1.3,0.7-2.7,0.7-4,0C323.8,70.7,323.8,67.6,322.5,64.5z"
		/>
</g>
<g>
	<path class="st36" d="M225.5,63.5c2.4-0.3,4.8,0,7,1c1,0.9,1,1.6,0,2c-1.9-2.3-3.9-2.4-6-0.5c2.2,1.1,4.6,2.1,7,3
		c1.4,1.9,1,3.6-1,5c-2.6,0.5-5.3,0.7-8,0.5c-0.5-4.5,0.5-5,3-1.5c1.3,0.5,2.6,0.7,4,0.5c0-1,0-2,0-3
		C225.7,71,223.7,68.7,225.5,63.5z"/>
</g>
<g>
	<path class="st37" d="M293.5,64.5c1.5-1.3,3.2-1.3,5,0c1.3,5.3,2.7,5.3,4,0c1.9-1.1,3.9-1.3,6-0.5c-1.2,1.4-1.9,3-2,5
		c0.1,2,0.8,3.6,2,5c-2,0.7-4,0.7-6,0c1.1-2.1,1.3-4.2,0.5-6.5c-0.1,2.9-1.3,5.2-3.5,7c-1.3-2.6-2.4-5.3-3.5-8
		c-1,2.9-0.5,5.4,1.5,7.5c-1.3,0.7-2.7,0.7-4,0C294.8,70.7,294.8,67.6,293.5,64.5z"/>
</g>
<g>
	<path class="st38" d="M101.5,79.5c-1.1,1.1-1.3,2.4-0.5,4c0.7,0.8,1.5,1.1,2.5,1c4.1,3.6,8.8,6.4,14,8.5c-7.7-0.3-14.4-3.2-20-8.5
		c-0.7-1.8-1.7-3.5-3-5c0-0.3,0-0.7,0-1c0-1.5,0.7-2.7,2-3.5c2.3-0.5,4.6-0.7,7-0.5c7,1.5,14,2.8,21,4c0.2-1.4,0-2.7-0.5-4
		c-11.7-12-23.7-23.7-36-35c-0.7-0.7-0.7-1.3,0-2c8.2,6.8,16.3,13.7,24.5,20.5c6.5,6.2,12.7,12.7,18.5,19.5c0.7,1.6,0.6,3.1-0.5,4.5
		c-2,1-4.2,1.5-6.5,1.5c-6.7-1.5-13.4-3.2-20-5C102.9,78.5,102.1,78.9,101.5,79.5z"/>
</g>
<g>
	<path class="st39" d="M176.5,60.5c3.4-0.2,6.7,0,10,0.5c-7.9,1.5-14.9,4.8-21,10c-8.2,9.8-16.2,19.8-24,30c-7.3,5.1-15,5.7-23,2
		c7,1.2,13.4-0.4,19-5c8.3-9.7,16.7-19.3,25-29C167.1,65.9,171.7,63.1,176.5,60.5z"/>
</g>
<g>
	<path class="st40" d="M239.5,63.5c1.1-0.1,2.1,0,3,0.5c1.7,2.6,3.1,5.5,4,8.5c0.8,0.9,1.8,1.2,3,1c0.3-3.3,0-6.4-1-9.5
		c2-0.7,4-0.7,6,0c-1.8,2.8-2.5,6-2,9.5c2.4,0.1,4.2-0.9,5.5-3c0.7,1.3,0.5,2.5-0.5,3.5c-5,0.7-10,0.7-15,0c1.3-1,1.3-2,0-3
		c-1.3-0.5-2.6-0.7-4-0.5c-0.2,1.3,0.2,2.5,1,3.5c-1.7,0.7-3.3,0.7-5,0C237.1,70.9,238.8,67.4,239.5,63.5z"/>
</g>
<g>
	<path class="st41" d="M101.5,79.5c1.8,1.1,2.4,2.7,2,5c-1,0.1-1.8-0.2-2.5-1C100.2,81.9,100.4,80.6,101.5,79.5z"/>
</g>
<g>
	<path class="st42" d="M94.5,79.5c1.3,1.5,2.3,3.2,3,5c-4.7,0-9.3,0-14,0c0,8,0,16,0,24c-6.7,0-13.3,0-20,0c0-1.3,0-2.7,0-4
		c5,0,10,0,15,0c0-8.3,0-16.7,0-25C83.8,79.5,89.2,79.5,94.5,79.5z"/>
</g>
<g>
	<path class="st43" d="M191.5,93.5c2.3,0.7,2.4,1.7,0.5,3C191.5,95.6,191.4,94.6,191.5,93.5z"/>
</g>
<g>
	<path class="st44" d="M194.5,93.5c1.8,0.6,2.2,1.6,1,3C194.6,95.7,194.3,94.7,194.5,93.5z"/>
</g>
<g>
	<path class="st45" d="M197.5,92.5c2.7-0.2,5.4,0,8,0.5c3.9,3.1,3.9,6.1,0,9c-2.7,0.7-5.3,0.7-8,0C198.7,98.9,198.7,95.7,197.5,92.5
		z"/>
</g>
<g>
	<path class="st46" d="M201.5,94.5c4,0.6,5,2.7,3,6.5c-0.9,0.5-1.9,0.6-3,0.5C201.5,99.2,201.5,96.8,201.5,94.5z"/>
</g>
<g>
	<path class="st47" d="M303.5,94.5c2.5-1.1,5.1-1.3,8-0.5c0.5,0.4,0.8,0.9,1,1.5c-1.7-0.8-3.7-0.8-6,0c0.8,1.2,1.6,1.2,2.5,0
		c0.2,0.7,0.3,1.3,0.5,2c-1.5,0.4-2.5,1.8-3,4c2.2,0.3,4.1-0.3,5.5-2c0.6,0.9,0.5,1.8-0.5,2.5c-2.7,0.7-5.3,0.7-8,0
		C304.8,99.4,304.8,96.9,303.5,94.5z"/>
</g>
<g>
	<path class="st48" d="M294.5,94.5c2.4-1,5.1-1.3,8-1c0.7,4-1,5.7-5,5c-0.2,1.3,0.2,2.5,1,3.5c-1.7,0.7-3.3,0.7-5,0
		c1.2-1,1.8-2.3,2-4C295.5,96.6,295.2,95.4,294.5,94.5z"/>
</g>
<g>
	<path class="st49" d="M297.5,94.5c3.5,0.2,3.8,1.2,1,3C297.6,96.7,297.3,95.7,297.5,94.5z"/>
</g>
<g>
	<path class="st50" d="M313.5,94.5c2.8-1,5.8-1.3,9-1c-0.4,2.4-0.5,4.7-0.5,7c1,0.8,2.2,1.2,3.5,1c0.3-2.6-0.1-5.1-1-7.5
		c2.7-0.7,5.3-0.7,8,0c0.5,0.4,0.8,0.9,1,1.5c-1.7-0.8-3.7-0.8-6,0c0.8,1.2,1.6,1.2,2.5,0c0.2,0.7,0.3,1.3,0.5,2
		c-1.5,0.4-2.5,1.8-3,4c2.2,0.3,4.1-0.3,5.5-2c0.6,0.9,0.5,1.8-0.5,2.5c-4,0.7-8,0.7-12,0c-1.1-1.1-2.1-2.2-3-3.5
		c-1.2,1.5-0.9,2.7,1,3.5c-1.7,0.7-3.3,0.7-5,0C314.8,99.4,314.8,96.9,313.5,94.5z"/>
</g>
<g>
	<path class="st51" d="M366.5,92.5c1.2,1.2,2.4,1.2,3.5,0c0.5,4.7-1,5.2-4.5,1.5C366.1,93.6,366.4,93.1,366.5,92.5z"/>
</g>
<g>
	<path class="st52" d="M231.5,92.5c2.1-0.3,4.1,0,6,1c1.1,1.1,1.1,2.1,0,3c-5.1-3.2-6.8-1.9-5,4c1.2,0.8,2.6,1.3,4,1.5
		c-4,1.4-6.4,0.1-7-4C229.4,95.8,230.1,94,231.5,92.5z"/>
</g>
<g>
	<path class="st53" d="M272.5,92.5c6.8,0.6,8.5,3.8,5,9.5c-6,1.7-8.5-0.5-7.5-6.5C270.7,94.3,271.5,93.3,272.5,92.5z"/>
</g>
<g>
	<path class="st54" d="M272.5,94.5c1.3,0,2.7,0,4,0c0.2,2,0,4-0.5,6c-2.5,1.3-4,0.5-4.5-2.5C272,96.9,272.3,95.7,272.5,94.5z"/>
</g>
<g>
	<path class="st55" d="M316.5,94.5c1.5-0.3,2.8,0.1,4,1c-0.8,1.6-2.2,2.3-4,2C316.5,96.5,316.5,95.5,316.5,94.5z"/>
</g>
<g>
	<path class="st56" d="M242.5,93.5c1.3-0.2,2.5,0.2,3.5,1c3.5,9.5,4.6,9.3,3.5-0.5c3-0.5,6-0.7,9-0.5c-0.4,2.4-0.5,4.7-0.5,7
		c1,0.8,2.2,1.2,3.5,1c0.3-2.6-0.1-5.1-1-7.5c1.3-0.7,2.7-0.7,4,0c-0.9,2.4-1.3,4.9-1,7.5c1.9,0.2,3.4-0.5,4.5-2
		c0.6,0.9,0.5,1.8-0.5,2.5c-3.7,0.7-7.3,0.7-11,0c-1.1-1.1-2.1-2.2-3-3.5c-1.2,1.5-0.9,2.7,1,3.5c-3.3,0.7-6.7,0.7-10,0
		c1.4-1.3,1.1-2.2-1-2.5c-2.1,0.3-2.4,1.2-1,2.5c-1.3,0.7-2.7,0.7-4,0C240.7,99.6,242,96.7,242.5,93.5z"/>
</g>
<g>
	<path class="st57" d="M252.5,94.5c1.5-0.3,2.8,0.1,4,1c-0.8,1.6-2.2,2.3-4,2C252.5,96.5,252.5,95.5,252.5,94.5z"/>
</g>
<g>
	<path class="st3" d="M282.5,92.5c2-0.1,3.6,0.5,5,2c-1.4,0.2-3.1,0.3-5,0.5c1.5,1.1,3.2,1.9,5,2.5c1.2,1.5,1.2,3,0,4.5
		c-2.3,0.8-4.4,0.6-6.5-0.5c-0.7-0.7-0.7-1.3,0-2c1.6,2,3.4,2.3,5.5,1c-1.5-1.5-3.3-2.5-5.5-3C280.4,95.5,280.9,93.8,282.5,92.5z"/>
</g>
<g>
	<path class="st6" d="M344.5,94.5c2.5-1.1,5.1-1.3,8-0.5c1.3,1.8,1,3.3-1,4.5c0.7,1.3,1.7,2.3,3,3c1.4-2.2,2.6-4.5,3.5-7
		c0.6-0.5,1.2-0.9,2-1c2.2,2.6,4,5.4,5.5,8.5c-1.7,0.7-3.3,0.7-5,0c1.4-1.3,1.1-2.2-1-2.5c-2.1,0.3-2.4,1.2-1,2.5
		c-4.3,1.4-7.7,0.3-10-3.5c-1.2,1.2-1.2,2.3,0,3.5c-1.3,0.7-2.7,0.7-4,0C345.8,99.4,345.8,96.9,344.5,94.5z"/>
</g>
<g>
	<path class="st58" d="M347.5,94.5c1,0,2,0,3,0c0,1,0,2,0,3c-1,0-2,0-3,0C347.5,96.5,347.5,95.5,347.5,94.5z"/>
</g>
<g>
	<path class="st59" d="M208.5,92.5c2.7-0.2,5.4,0,8,0.5c2.5,1.8,2.5,3.6,0,5.5c0.8,1.3,1.8,2.5,3,3.5c-1.4,0.8-2.8,0.6-4-0.5
		c-2.6-4.1-3.3-4-2,0.5c-1.7,0.7-3.3,0.7-5,0C209.7,98.9,209.7,95.7,208.5,92.5z"/>
</g>
<g>
	<path class="st60" d="M212.5,94.5c3.5,0.2,3.8,1.2,1,3C212.6,96.7,212.3,95.7,212.5,94.5z"/>
</g>
<g>
	<path class="st35" d="M334.5,94.5c1.1-0.9,2.4-1.3,4-1c0.7,4,1.3,4,2,0c1.1-0.1,2.1,0,3,0.5c-2.7,2.2-3.4,4.9-2,8
		c-1.7,0.7-3.3,0.7-5,0C337.9,98.9,337.3,96.4,334.5,94.5z"/>
</g>
<g>
	<path class="st61" d="M220.5,100.5c1.8,0.1,2.2,0.8,1,2C220.7,102,220.4,101.4,220.5,100.5z"/>
</g>
<g>
	<path class="st62" d="M94.5,78.5c0,0.3,0,0.7,0,1c-5.3,0-10.7,0-16,0c0,8.3,0,16.7,0,25c-5,0-10,0-15,0c-1.9,0.3-3.6,0-5-1
		c6.3,0,12.7,0,19,0c0-8.3,0-16.7,0-25C83.2,78.5,88.8,78.5,94.5,78.5z"/>
</g>
</svg>
